<?xml version="1.0" encoding="utf-8"?>
<!-- Generator: Adobe Illustrator 19.1.0, SVG Export Plug-In . SVG Version: 6.00 Build 0)  -->
<svg version="1.1" id="Layer_1" xmlns="http://www.w3.org/2000/svg" xmlns:xlink="http://www.w3.org/1999/xlink" x="0px" y="0px"
	 viewBox="-449 438 100 125" style="enable-background:new -449 438 100 125;" xml:space="preserve">
<style type="text/css">
	.st0{fill:#FFFFFF;}
</style>
<path class="st0" d="M-373.4,496.6v4.8c0,14.7-11.2,26.7-25.9,26.7c-14.7,0-26.7-12-26.7-26.7v-5.6h-4.5v4.3
	c0,17.5,11.8,30.8,28.9,32.6v16h-21.4v3.8h47.5v-3.8h-22V533c17-1.8,29.3-16.8,28.1-34.3l-0.1-2.2H-373.4z"/>
<path class="st0" d="M-399.3,519.5c10.1,0,18.2-8.2,18.2-18.2v-36.6c0-10.1-8.2-18.2-18.2-18.2c-10.1,0-18.2,8.2-18.2,18.2v36.6
	C-417.5,511.4-409.4,519.5-399.3,519.5z"/>
</svg>
