<svg width="112" height="112" xmlns="http://www.w3.org/2000/svg"><defs><filter x="-50%" y="-50%" width="200%" height="200%" filterUnits="objectBoundingBox" id="a"><feOffset dy="2" in="SourceAlpha" result="shadowOffsetOuter1"/><feGaussianBlur stdDeviation="3.5" in="shadowOffsetOuter1" result="shadowBlurOuter1"/><feColorMatrix values="0 0 0 0 0 0 0 0 0 0 0 0 0 0 0 0 0 0 0.35 0" in="shadowBlurOuter1" result="shadowMatrixOuter1"/><feMerge><feMergeNode in="shadowMatrixOuter1"/><feMergeNode in="SourceGraphic"/></feMerge></filter></defs><g transform="translate(8 6)" fill="none" fill-rule="evenodd"><circle stroke="#FFF" stroke-width="2" fill="#005189" filter="url(#a)" cx="48" cy="48" r="48"/><g fill="#FFF"><g transform="translate(19.5 18.75)"><path d="M55.163 43.234c-.237-.028-3.915-.252-3.915-4.285v.253C48.8 13.117 35.74 6.492 28.337 6.492c-7.402 0-20.795 6.812-23.035 32.457 0 0-.801 4.203-3.914 4.285-.263.1-1.388.372-1.388 1.765v3.529s17.01-1.765 28.275-1.765c11.266 0 28.275 1.765 28.275 1.765v-3.53c0-1.213-.746-1.681-1.387-1.764z"/><ellipse cx="28.275" cy="4.412" rx="4.039" ry="4.033"/></g><path d="M47.775 77.992c4.467 0 8.079-3.655 8.079-8.067 0 0-2.336-.882-8.079-.882s-8.079.882-8.079.882c0 4.412 3.613 8.067 8.079 8.067z"/></g></g></svg>