<svg version="1.1" id="Layer_1" xmlns="http://www.w3.org/2000/svg" x="0" y="0" viewBox="-449 438 100 125" xml:space="preserve"><style>.st0{fill:#fff}</style><path class="st0" d="M-373.4 496.6v4.8c0 14.7-11.2 26.7-25.9 26.7s-26.7-12-26.7-26.7v-5.6h-4.5v4.3c0 17.5 11.8 30.8 28.9 32.6v16H-423v3.8h47.5v-3.8h-22V533c17-1.8 29.3-16.8 28.1-34.3l-.1-2.2h-3.9z"/><path class="st0" d="M-399.3 519.5c10.1 0 18.2-8.2 18.2-18.2v-36.6c0-10.1-8.2-18.2-18.2-18.2-10.1 0-18.2 8.2-18.2 18.2v36.6c0 10.1 8.1 18.2 18.2 18.2z"/></svg>